<mxfile host="65bd71144e">
    <diagram id="VXVndNSEGyV2LDYHduhS" name="第 1 页">
        <mxGraphModel dx="1216" dy="653" grid="1" gridSize="10" guides="1" tooltips="1" connect="1" arrows="1" fold="1" page="1" pageScale="1" pageWidth="827" pageHeight="1169" math="0" shadow="0">
            <root>
                <mxCell id="0"/>
                <mxCell id="1" parent="0"/>
                <mxCell id="3" value="reg box" style="rounded=0;whiteSpace=wrap;html=1;" parent="1" vertex="1">
                    <mxGeometry x="340" y="90" width="120" height="80" as="geometry"/>
                </mxCell>
                <mxCell id="4" value="reg box" style="rounded=0;whiteSpace=wrap;html=1;" parent="1" vertex="1">
                    <mxGeometry x="340" y="250" width="120" height="30" as="geometry"/>
                </mxCell>
                <mxCell id="5" value="reg box" style="rounded=0;whiteSpace=wrap;html=1;" parent="1" vertex="1">
                    <mxGeometry x="340" y="290" width="120" height="30" as="geometry"/>
                </mxCell>
                <mxCell id="6" value="reg box" style="rounded=0;whiteSpace=wrap;html=1;" parent="1" vertex="1">
                    <mxGeometry x="340" y="330" width="120" height="30" as="geometry"/>
                </mxCell>
                <mxCell id="8" value="Read&lt;br&gt;Mux" style="shadow=0;dashed=0;align=center;html=1;strokeWidth=1;shape=mxgraph.rtl.abstract.entity;container=1;collapsible=0;kind=mux;drawPins=0;left=4;right=1;bottom=0;" parent="1" vertex="1">
                    <mxGeometry x="490" y="90" width="70" height="270" as="geometry"/>
                </mxCell>
                <mxCell id="9" value="" style="endArrow=classic;html=1;exitX=0;exitY=0.5;exitDx=0;exitDy=0;" parent="1" source="11" edge="1">
                    <mxGeometry width="50" height="50" relative="1" as="geometry">
                        <mxPoint x="600" y="160" as="sourcePoint"/>
                        <mxPoint x="560" y="160" as="targetPoint"/>
                    </mxGeometry>
                </mxCell>
                <mxCell id="11" value="rreq_addr" style="rounded=1;whiteSpace=wrap;html=1;fillColor=#60a917;strokeColor=#2D7600;fontColor=#ffffff;" parent="1" vertex="1">
                    <mxGeometry x="620" y="150" width="90" height="20" as="geometry"/>
                </mxCell>
                <mxCell id="12" value="rreq_valid" style="rounded=1;whiteSpace=wrap;html=1;fillColor=#60a917;strokeColor=#2D7600;fontColor=#ffffff;" parent="1" vertex="1">
                    <mxGeometry x="620" y="170" width="90" height="20" as="geometry"/>
                </mxCell>
                <mxCell id="13" value="" style="endArrow=classic;html=1;entryX=1;entryY=0.278;entryDx=0;entryDy=0;entryPerimeter=0;exitX=0;exitY=0.5;exitDx=0;exitDy=0;" parent="1" edge="1">
                    <mxGeometry width="50" height="50" relative="1" as="geometry">
                        <mxPoint x="620" y="180" as="sourcePoint"/>
                        <mxPoint x="560" y="180.03999999999996" as="targetPoint"/>
                    </mxGeometry>
                </mxCell>
                <mxCell id="14" value="rack_data" style="rounded=1;whiteSpace=wrap;html=1;fillColor=#60a917;strokeColor=#2D7600;fontColor=#ffffff;" parent="1" vertex="1">
                    <mxGeometry x="620" y="240" width="90" height="20" as="geometry"/>
                </mxCell>
                <mxCell id="15" value="" style="endArrow=classic;html=1;entryX=0;entryY=0.5;entryDx=0;entryDy=0;exitX=1;exitY=0.593;exitDx=0;exitDy=0;exitPerimeter=0;" parent="1" source="8" target="14" edge="1">
                    <mxGeometry width="50" height="50" relative="1" as="geometry">
                        <mxPoint x="560" y="340.09000000000003" as="sourcePoint"/>
                        <mxPoint x="570" y="240.03999999999996" as="targetPoint"/>
                    </mxGeometry>
                </mxCell>
                <mxCell id="16" value="rack_valid" style="rounded=1;whiteSpace=wrap;html=1;fillColor=#60a917;strokeColor=#2D7600;fontColor=#ffffff;" parent="1" vertex="1">
                    <mxGeometry x="620" y="260" width="90" height="20" as="geometry"/>
                </mxCell>
                <mxCell id="17" value="rreq_ready" style="rounded=1;whiteSpace=wrap;html=1;fillColor=#60a917;strokeColor=#2D7600;fontColor=#ffffff;" parent="1" vertex="1">
                    <mxGeometry x="620" y="190" width="90" height="20" as="geometry"/>
                </mxCell>
                <mxCell id="18" value="" style="endArrow=classic;html=1;entryX=0;entryY=0.5;entryDx=0;entryDy=0;exitX=1;exitY=0.407;exitDx=0;exitDy=0;exitPerimeter=0;" parent="1" source="8" target="17" edge="1">
                    <mxGeometry width="50" height="50" relative="1" as="geometry">
                        <mxPoint x="630" y="190" as="sourcePoint"/>
                        <mxPoint x="569.9999999999999" y="190.03999999999996" as="targetPoint"/>
                    </mxGeometry>
                </mxCell>
                <mxCell id="19" value="rreq_ready" style="rounded=1;whiteSpace=wrap;html=1;fillColor=#60a917;strokeColor=#2D7600;fontColor=#ffffff;" parent="1" vertex="1">
                    <mxGeometry x="620" y="280" width="90" height="20" as="geometry"/>
                </mxCell>
                <mxCell id="20" value="" style="endArrow=classic;html=1;entryX=0;entryY=0.5;entryDx=0;entryDy=0;exitX=0;exitY=0;exitDx=70;exitDy=140;exitPerimeter=0;" parent="1" edge="1">
                    <mxGeometry width="50" height="50" relative="1" as="geometry">
                        <mxPoint x="560" y="269.86" as="sourcePoint"/>
                        <mxPoint x="620" y="269.86" as="targetPoint"/>
                    </mxGeometry>
                </mxCell>
                <mxCell id="21" value="" style="endArrow=classic;html=1;entryX=1;entryY=0.278;entryDx=0;entryDy=0;entryPerimeter=0;exitX=0;exitY=0.5;exitDx=0;exitDy=0;" parent="1" edge="1">
                    <mxGeometry width="50" height="50" relative="1" as="geometry">
                        <mxPoint x="620" y="289.86" as="sourcePoint"/>
                        <mxPoint x="560" y="289.9" as="targetPoint"/>
                    </mxGeometry>
                </mxCell>
                <mxCell id="23" value="" style="endArrow=none;dashed=1;html=1;entryX=0.5;entryY=1;entryDx=0;entryDy=0;exitX=0.5;exitY=0;exitDx=0;exitDy=0;" parent="1" source="4" target="3" edge="1">
                    <mxGeometry width="50" height="50" relative="1" as="geometry">
                        <mxPoint x="280" y="220" as="sourcePoint"/>
                        <mxPoint x="330" y="170" as="targetPoint"/>
                    </mxGeometry>
                </mxCell>
                <mxCell id="25" value="" style="endArrow=classic;html=1;entryX=-0.002;entryY=0.037;entryDx=0;entryDy=0;entryPerimeter=0;exitX=1.002;exitY=0.129;exitDx=0;exitDy=0;exitPerimeter=0;" parent="1" edge="1">
                    <mxGeometry width="50" height="50" relative="1" as="geometry">
                        <mxPoint x="460.2400000000001" y="120.33" as="sourcePoint"/>
                        <mxPoint x="489.86" y="120.00000000000001" as="targetPoint"/>
                    </mxGeometry>
                </mxCell>
                <mxCell id="26" value="" style="endArrow=classic;html=1;entryX=-0.002;entryY=0.037;entryDx=0;entryDy=0;entryPerimeter=0;exitX=1.002;exitY=0.129;exitDx=0;exitDy=0;exitPerimeter=0;" parent="1" edge="1">
                    <mxGeometry width="50" height="50" relative="1" as="geometry">
                        <mxPoint x="460.38" y="130.33" as="sourcePoint"/>
                        <mxPoint x="490" y="130" as="targetPoint"/>
                    </mxGeometry>
                </mxCell>
                <mxCell id="27" value="" style="endArrow=classic;html=1;exitX=0;exitY=0.5;exitDx=0;exitDy=0;" parent="1" edge="1">
                    <mxGeometry width="50" height="50" relative="1" as="geometry">
                        <mxPoint x="489.9999999999999" y="140.01" as="sourcePoint"/>
                        <mxPoint x="460" y="140.01" as="targetPoint"/>
                    </mxGeometry>
                </mxCell>
                <mxCell id="29" value="Write&lt;br&gt;Decode" style="shadow=0;dashed=0;align=center;html=1;strokeWidth=1;shape=mxgraph.rtl.abstract.entity;container=1;collapsible=0;kind=demux;drawPins=0;left=1;right=4;bottom=0;" parent="1" vertex="1">
                    <mxGeometry x="230" y="90" width="80" height="270" as="geometry"/>
                </mxCell>
                <mxCell id="30" value="wreq_addr" style="rounded=1;whiteSpace=wrap;html=1;fillColor=#60a917;strokeColor=#2D7600;fontColor=#ffffff;" parent="1" vertex="1">
                    <mxGeometry x="90" y="180" width="90" height="20" as="geometry"/>
                </mxCell>
                <mxCell id="31" value="wreq_data" style="rounded=1;whiteSpace=wrap;html=1;fillColor=#60a917;strokeColor=#2D7600;fontColor=#ffffff;" parent="1" vertex="1">
                    <mxGeometry x="90" y="200" width="90" height="20" as="geometry"/>
                </mxCell>
                <mxCell id="32" value="wreq_valid" style="rounded=1;whiteSpace=wrap;html=1;fillColor=#60a917;strokeColor=#2D7600;fontColor=#ffffff;" parent="1" vertex="1">
                    <mxGeometry x="90" y="220" width="90" height="20" as="geometry"/>
                </mxCell>
                <mxCell id="33" value="wreq_ready" style="rounded=1;whiteSpace=wrap;html=1;fillColor=#60a917;strokeColor=#2D7600;fontColor=#ffffff;" parent="1" vertex="1">
                    <mxGeometry x="90" y="240" width="90" height="20" as="geometry"/>
                </mxCell>
                <mxCell id="34" value="" style="endArrow=classic;html=1;entryX=-0.002;entryY=0.037;entryDx=0;entryDy=0;entryPerimeter=0;exitX=1.002;exitY=0.129;exitDx=0;exitDy=0;exitPerimeter=0;" parent="1" edge="1">
                    <mxGeometry width="50" height="50" relative="1" as="geometry">
                        <mxPoint x="310.24000000000024" y="120.15999999999998" as="sourcePoint"/>
                        <mxPoint x="339.8600000000001" y="119.83" as="targetPoint"/>
                    </mxGeometry>
                </mxCell>
                <mxCell id="35" value="" style="endArrow=classic;html=1;entryX=-0.002;entryY=0.037;entryDx=0;entryDy=0;entryPerimeter=0;exitX=1.002;exitY=0.129;exitDx=0;exitDy=0;exitPerimeter=0;" parent="1" edge="1">
                    <mxGeometry width="50" height="50" relative="1" as="geometry">
                        <mxPoint x="310.3800000000001" y="130.1600000000001" as="sourcePoint"/>
                        <mxPoint x="340" y="129.83" as="targetPoint"/>
                    </mxGeometry>
                </mxCell>
                <mxCell id="36" value="" style="endArrow=classic;html=1;exitX=0;exitY=0.5;exitDx=0;exitDy=0;" parent="1" edge="1">
                    <mxGeometry width="50" height="50" relative="1" as="geometry">
                        <mxPoint x="340" y="139.84" as="sourcePoint"/>
                        <mxPoint x="310" y="139.84" as="targetPoint"/>
                    </mxGeometry>
                </mxCell>
                <mxCell id="37" value="" style="endArrow=classic;html=1;exitX=1;exitY=0.407;exitDx=0;exitDy=0;exitPerimeter=0;" parent="1" edge="1">
                    <mxGeometry width="50" height="50" relative="1" as="geometry">
                        <mxPoint x="180" y="189.82999999999998" as="sourcePoint"/>
                        <mxPoint x="230" y="190" as="targetPoint"/>
                    </mxGeometry>
                </mxCell>
                <mxCell id="38" value="" style="endArrow=classic;html=1;exitX=1;exitY=0.407;exitDx=0;exitDy=0;exitPerimeter=0;" parent="1" edge="1">
                    <mxGeometry width="50" height="50" relative="1" as="geometry">
                        <mxPoint x="180" y="209.89999999999998" as="sourcePoint"/>
                        <mxPoint x="230" y="210.07" as="targetPoint"/>
                    </mxGeometry>
                </mxCell>
                <mxCell id="39" value="" style="endArrow=classic;html=1;exitX=1;exitY=0.407;exitDx=0;exitDy=0;exitPerimeter=0;" parent="1" edge="1">
                    <mxGeometry width="50" height="50" relative="1" as="geometry">
                        <mxPoint x="180" y="229.89999999999998" as="sourcePoint"/>
                        <mxPoint x="230" y="230.07" as="targetPoint"/>
                    </mxGeometry>
                </mxCell>
                <mxCell id="40" value="" style="endArrow=classic;html=1;entryX=1;entryY=0.278;entryDx=0;entryDy=0;entryPerimeter=0;exitX=0;exitY=0.555;exitDx=0;exitDy=0;exitPerimeter=0;" parent="1" edge="1">
                    <mxGeometry width="50" height="50" relative="1" as="geometry">
                        <mxPoint x="230" y="249.85000000000002" as="sourcePoint"/>
                        <mxPoint x="180" y="249.83999999999997" as="targetPoint"/>
                    </mxGeometry>
                </mxCell>
                <mxCell id="42" value="" style="rounded=0;whiteSpace=wrap;html=1;dashed=1;align=left;" parent="1" vertex="1">
                    <mxGeometry x="210" y="410" width="370" height="250" as="geometry"/>
                </mxCell>
                <mxCell id="41" value="Field 0" style="rounded=0;whiteSpace=wrap;html=1;" parent="1" vertex="1">
                    <mxGeometry x="340" y="440" width="120" height="30" as="geometry"/>
                </mxCell>
                <mxCell id="45" value="遗留问题：如果使用握手接口，并且针对每个field操作的话，对于一个reg的操作需要把这个reg所有field的valid、ready做一个聚合" style="text;html=1;align=center;verticalAlign=middle;resizable=0;points=[];autosize=1;strokeColor=none;fillColor=none;" parent="1" vertex="1">
                    <mxGeometry x="80" y="10" width="710" height="30" as="geometry"/>
                </mxCell>
                <mxCell id="46" value="Field 1" style="rounded=0;whiteSpace=wrap;html=1;" parent="1" vertex="1">
                    <mxGeometry x="340" y="480" width="120" height="30" as="geometry"/>
                </mxCell>
                <mxCell id="47" value="Field N" style="rounded=0;whiteSpace=wrap;html=1;" parent="1" vertex="1">
                    <mxGeometry x="340" y="610" width="120" height="30" as="geometry"/>
                </mxCell>
                <mxCell id="48" value="Vld/Rdy&lt;br&gt;Fanout" style="shadow=0;dashed=0;align=center;html=1;strokeWidth=1;shape=mxgraph.rtl.abstract.entity;container=1;collapsible=0;kind=demux;drawPins=0;left=1;right=4;bottom=0;" parent="1" vertex="1">
                    <mxGeometry x="230" y="440" width="80" height="200" as="geometry"/>
                </mxCell>
                <mxCell id="50" value="Vld/Rdy&lt;br&gt;Merge" style="shadow=0;dashed=0;align=center;html=1;strokeWidth=1;shape=mxgraph.rtl.abstract.entity;container=1;collapsible=0;kind=mux;drawPins=0;left=4;right=1;bottom=0;" parent="1" vertex="1">
                    <mxGeometry x="490" y="440" width="70" height="200" as="geometry"/>
                </mxCell>
                <mxCell id="124" value="" style="rounded=0;whiteSpace=wrap;html=1;" parent="1" vertex="1">
                    <mxGeometry x="880" y="340" width="150" height="230" as="geometry"/>
                </mxCell>
                <mxCell id="126" value="" style="rounded=0;whiteSpace=wrap;html=1;fillColor=#1ba1e2;fontColor=#ffffff;strokeColor=#006EAF;labelBackgroundColor=none;" vertex="1" parent="1">
                    <mxGeometry x="1110" y="440" width="120" height="30" as="geometry"/>
                </mxCell>
                <mxCell id="128" value="Internal Register" style="rounded=0;whiteSpace=wrap;html=1;fillColor=#8a63bb;" vertex="1" parent="1">
                    <mxGeometry x="893" y="460" width="127" height="30" as="geometry"/>
                </mxCell>
                <mxCell id="129" value="Internal Register" style="rounded=0;whiteSpace=wrap;html=1;fillColor=#8a63bb;labelBackgroundColor=none;" vertex="1" parent="1">
                    <mxGeometry x="893" y="418" width="125" height="30" as="geometry"/>
                </mxCell>
                <mxCell id="132" value="Decoder" style="rounded=0;whiteSpace=wrap;html=1;fillColor=#0c0515;labelBackgroundColor=none;" vertex="1" parent="1">
                    <mxGeometry x="890" y="350" width="130" height="50" as="geometry"/>
                </mxCell>
                <mxCell id="133" value="" style="rounded=0;whiteSpace=wrap;html=1;fillColor=#1ba1e2;fontColor=#ffffff;strokeColor=#006EAF;labelBackgroundColor=none;" vertex="1" parent="1">
                    <mxGeometry x="1110" y="520" width="120" height="30" as="geometry"/>
                </mxCell>
                <mxCell id="134" value="Internal Register" style="rounded=0;whiteSpace=wrap;html=1;fillColor=#8a63bb;" vertex="1" parent="1">
                    <mxGeometry x="893" y="527" width="127" height="30" as="geometry"/>
                </mxCell>
            </root>
        </mxGraphModel>
    </diagram>
</mxfile>